<svg width="1116" height="1090" viewBox="0 0 1116 1090" fill="none" xmlns="http://www.w3.org/2000/svg">
<path d="M355.429 95.3602L361.158 115.191L366.875 134.981L372.568 154.687L378.249 174.351L383.917 193.974L389.562 213.513L395.195 233.011L400.815 252.467L406.412 271.84L411.997 291.171L417.569 310.46L423.117 329.666L428.654 348.831L434.178 367.954L439.679 386.993L445.167 405.991L468.983 419.569L492.788 433.106L516.581 446.601L540.361 460.054L564.13 473.465L587.898 486.877L611.643 500.205L635.387 513.533L654.269 524.919L673.139 536.263L691.997 547.565L710.855 558.867L729.7 570.128L748.546 581.388L767.38 592.607L786.201 603.784L812.435 619.99L838.688 636.106L864.928 652.181L891.156 668.213L917.373 684.205L943.577 700.154L969.757 716.02L997.714 732.916L999.994 740.963L1007.45 751.122L1026.06 768.689L1028.96 773.156L1029.16 773.213L1031.05 778.056L1037.73 782.546L1052 788.074L1055.79 791.272L1055.88 791.564L1056.59 794.195L1054.42 797.842L1044.01 810.518L1039.26 820.269L1035.92 835.373L1040.33 846.484L1042.69 855.869L1043.02 863.524L1042.19 870.748L1040.21 877.543L1037.34 881.864L1033.57 883.713L1034.53 892.14L1040.11 907.118L1047.36 915.612L1056.24 917.669L1062.53 921.915L1066.23 928.349L1067.44 935.038L1066.15 942.031L1061.81 946.406L1050.81 949.119L1050.75 949.998L1041.73 952.446L1019.03 958.068L996.321 963.689L973.615 969.311L950.909 974.933L928.203 980.554L905.497 986.176L882.791 991.798L860.085 997.419L859.745 996.863L856.239 986.742L851.418 983.705L847.211 986.666L841.185 973.716L840.568 967.239L838.198 961.208L829.284 946.792L811.884 930.3L779.163 911.489L763.656 905.891L750.389 897.812L743.003 896.131L734.468 896.675L733.33 901.423L723.03 899.891L721.316 888.839L707.74 875.191L699.712 874.699L681.048 878.647L653.311 874.298L644.375 870.508L639.238 862.034L625.134 856.174L607.293 851.026L599.094 854.13L587.351 854.738L569.523 851.808L559.854 852.616L541.885 857.108L534.644 857.016L526.269 851.135L518.367 848.752L517.369 840.026L514.242 832.458L513.538 826.299L506.648 813.614L505.522 801.034L502.188 796.938L497.311 794.17L483.646 791.071L479.599 785.127L479.099 776.107L474.222 770.858L462.636 767.044L449.762 756.291L435.946 751.431L427.82 740.985L418.521 735.161L414.21 729.389L391.634 709.871L369.328 695.318L363.793 685.774L359.172 672.257L363.539 662.871L365.109 654.965L362.773 648.276L360.312 643.478L351.86 635.781L327.311 634.245L302.398 615.788L296.553 599.588L284.327 583.946L281.076 573.002L276.531 561.302L281.359 557.851L286.653 558.029L287.511 562.859L291.626 571.056L299.342 576.516L305.766 578.434L312.65 583.806L317.007 585.087L321.085 584.932L317.84 581.301L314.876 579.106L309.761 571.326L301.497 561.641L293.821 556.784L287.719 546.675L284.393 544.624L281.633 540.961L286.073 535.395L293 530.834L303.339 528.312L333.886 525.171L339.492 521.469L345.019 521.524L348.782 520.59L339.829 519.066L335.505 520.696L329.934 520.953L319.328 523.169L314.66 522.676L308.895 520.09L305.668 520.244L297.393 527.583L292.772 527.561L280.48 522.856L275.639 522.695L269.299 527.425L272.875 543.063L278.47 554.209L274.39 556.062L267.916 552.107L259.25 550.494L251.524 547.169L240.067 540.549L234.41 538.338L230.89 545.851L229.785 542.801L230.248 534.632L225.709 521.712L236.908 530.853L232.26 523.914L223.536 516.826L217.884 514.788L207.619 501.278L191.382 494.706L176.337 482.331L147.116 462.454L139.657 442.065L123.909 417.175L123.073 401.72L119.545 391.212L110.88 375.799L104.151 367.703L78.9942 346.541L56.7746 333.063L50.5656 321.186L45.7354 308.964L46.3502 297.288L46.282 285.11L47.7926 281.653L49.1091 282.798L49.1451 285.404L51.8608 285.809L51.3117 280.496L51.9994 277.603L49.2874 277.677L49.0753 276.012L49.7231 272.515L50.7277 256.295L44.5616 236.967L43.4848 212.146L40.9407 204.271L32.2876 187.811L25.6392 178.136L16.9415 171.914L16.7883 160.837L13.5943 150.711L11.7287 149.217L33.9095 145.81L55.3493 142.475L76.7891 139.14L98.2289 135.804L119.669 132.469L141.108 129.134L162.548 125.799L183.988 122.464L205.428 119.129L226.868 115.794L248.307 112.459L269.747 109.124L291.187 105.789L312.627 102.454L334.067 99.1186L355.549 95.7768L355.429 95.3602Z" fill="#007565"/>
<path d="M366.429 74.3323L372.158 94.1633L377.875 113.953L383.568 133.659L389.249 153.323L394.917 172.946L400.562 192.485L406.195 211.983L411.815 231.439L417.412 250.812L422.997 270.143L428.569 289.432L434.117 308.638L439.654 327.803L445.178 346.926L450.679 365.965L456.167 384.963L479.983 398.541L503.788 412.078L527.581 425.573L551.361 439.026L575.13 452.437L598.898 465.849L622.643 479.177L646.387 492.505L665.269 503.891L684.139 515.235L702.997 526.537L721.855 537.839L740.7 549.1L759.546 560.36L778.38 571.579L797.201 582.756L823.435 598.962L849.688 615.078L875.928 631.153L902.157 647.186L928.373 663.177L954.577 679.126L980.757 694.992L1008.71 711.888L1010.99 719.936L1018.45 730.094L1037.06 747.661L1039.96 752.128L1040.16 752.185L1042.05 757.028L1048.73 761.518L1063 767.047L1066.79 770.244L1066.88 770.536L1067.59 773.167L1065.42 776.814L1055.01 789.49L1050.26 799.241L1046.92 814.346L1051.33 825.456L1053.69 834.841L1054.02 842.496L1053.19 849.72L1051.21 856.515L1048.34 860.836L1044.57 862.685L1045.53 871.112L1051.11 886.09L1058.36 894.584L1067.24 896.641L1073.53 900.887L1077.23 907.321L1078.44 914.01L1077.15 921.003L1072.81 925.378L1061.81 928.091L1061.75 928.971L1052.73 931.418L1030.03 937.04L1007.32 942.661L984.615 948.283L961.909 953.905L939.203 959.526L916.497 965.148L893.791 970.77L871.085 976.391L870.745 975.835L867.239 965.714L862.418 962.677L858.211 965.638L852.185 952.688L851.568 946.211L849.198 940.18L840.284 925.764L822.884 909.272L790.163 890.462L774.656 884.863L761.389 876.784L754.003 875.103L745.468 875.647L744.33 880.395L734.03 878.863L732.316 867.811L718.74 854.163L710.712 853.671L692.048 857.619L664.311 853.27L655.375 849.48L650.238 841.006L636.134 835.146L618.293 829.998L610.094 833.102L598.351 833.71L580.523 830.78L570.854 831.588L552.885 836.081L545.644 835.988L537.269 830.108L529.367 827.724L528.369 818.998L525.242 811.43L524.538 805.271L517.648 792.586L516.522 780.006L513.188 775.91L508.311 773.142L494.647 770.044L490.599 764.1L490.099 755.079L485.222 749.83L473.636 746.016L460.762 735.263L446.946 730.403L438.82 719.957L429.521 714.133L425.21 708.361L402.634 688.843L380.328 674.29L374.793 664.746L370.172 651.229L374.539 641.843L376.109 633.937L373.773 627.248L371.312 622.45L362.86 614.753L338.311 613.217L313.398 594.76L307.553 578.56L295.327 562.918L292.076 551.974L287.531 540.274L292.359 536.824L297.653 537.001L298.511 541.831L302.626 550.028L310.342 555.488L316.766 557.406L323.65 562.778L328.007 564.059L332.085 563.904L328.84 560.273L325.876 558.078L320.761 550.298L312.497 540.613L304.821 535.756L298.719 525.647L295.393 523.596L292.633 519.933L297.073 514.367L304 509.806L314.339 507.284L344.886 504.143L350.492 500.441L356.019 500.496L359.782 499.562L350.829 498.038L346.505 499.668L340.934 499.926L330.328 502.141L325.66 501.648L319.895 499.063L316.668 499.216L308.393 506.555L303.772 506.533L291.48 501.828L286.639 501.667L280.299 506.397L283.875 522.036L289.47 533.181L285.39 535.034L278.916 531.079L270.25 529.466L262.524 526.141L251.067 519.521L245.41 517.31L241.89 524.823L240.785 521.773L241.248 513.604L236.709 500.684L247.908 509.825L243.26 502.886L234.536 495.798L228.884 493.76L218.619 480.251L202.382 473.678L187.337 461.303L158.116 441.426L150.657 421.037L134.909 396.148L134.073 380.692L130.545 370.184L121.88 354.771L115.151 346.676L89.9942 325.513L67.7746 312.035L61.5656 300.158L56.7354 287.936L57.3502 276.261L57.282 264.082L58.7926 260.625L60.1091 261.77L60.1451 264.376L62.8608 264.781L62.3118 259.468L62.9994 256.575L60.2875 256.649L60.0753 254.984L60.7231 251.487L61.7277 235.267L55.5616 215.939L54.4848 191.118L51.9407 183.243L43.2876 166.783L36.6392 157.108L27.9415 150.886L27.7883 139.809L24.5943 129.683L22.7287 128.189L44.9095 124.782L66.3493 121.447L87.7891 118.112L109.229 114.777L130.669 111.441L152.108 108.106L173.548 104.771L194.988 101.436L216.428 98.1011L237.868 94.766L259.307 91.4309L280.747 88.0959L302.187 84.7608L323.627 81.4257L345.067 78.0906L366.549 74.7489L366.429 74.3323Z" fill="#00C4AA"/>
<rect x="207" y="468" width="337" height="82" rx="10" fill="#BEFFF6"/>
<rect x="215" y="460" width="337" height="82" rx="10" fill="#005A4E"/>
<path d="M249.009 518.768C246.193 518.768 243.761 518.272 241.713 517.28C239.665 516.288 238.049 514.912 236.865 513.152C235.713 511.36 235.041 509.28 234.849 506.912L241.185 506.528C241.377 508 241.793 509.248 242.433 510.272C243.105 511.296 243.985 512.08 245.073 512.624C246.193 513.136 247.537 513.392 249.105 513.392C250.449 513.392 251.585 513.232 252.513 512.912C253.473 512.56 254.193 512.064 254.673 511.424C255.185 510.752 255.441 509.936 255.441 508.976C255.441 508.112 255.233 507.344 254.817 506.672C254.401 505.968 253.601 505.344 252.417 504.8C251.233 504.224 249.473 503.664 247.137 503.12C244.321 502.48 242.065 501.76 240.369 500.96C238.673 500.128 237.441 499.104 236.673 497.888C235.905 496.64 235.521 495.088 235.521 493.232C235.521 491.248 236.017 489.504 237.009 488C238.001 486.464 239.409 485.28 241.233 484.448C243.057 483.584 245.249 483.152 247.809 483.152C250.529 483.152 252.833 483.648 254.721 484.64C256.609 485.6 258.097 486.928 259.185 488.624C260.273 490.32 260.945 492.272 261.201 494.48L254.913 494.768C254.753 493.52 254.369 492.432 253.761 491.504C253.185 490.576 252.385 489.856 251.361 489.344C250.369 488.8 249.153 488.528 247.713 488.528C245.921 488.528 244.497 488.944 243.441 489.776C242.417 490.576 241.905 491.648 241.905 492.992C241.905 493.92 242.113 494.688 242.529 495.296C242.977 495.904 243.761 496.432 244.881 496.88C246.001 497.296 247.569 497.744 249.585 498.224C252.625 498.864 255.041 499.68 256.833 500.672C258.625 501.664 259.905 502.816 260.673 504.128C261.441 505.44 261.825 506.944 261.825 508.64C261.825 510.72 261.297 512.528 260.241 514.064C259.185 515.568 257.697 516.736 255.777 517.568C253.857 518.368 251.601 518.768 249.009 518.768ZM275.402 518.576C272.714 518.576 270.554 517.968 268.922 516.752C267.29 515.504 266.474 513.776 266.474 511.568C266.474 509.36 267.162 507.632 268.538 506.384C269.914 505.136 272.01 504.24 274.826 503.696L283.322 502.016C283.322 500.192 282.906 498.832 282.074 497.936C281.242 497.008 280.01 496.544 278.378 496.544C276.906 496.544 275.738 496.896 274.874 497.6C274.042 498.272 273.466 499.248 273.146 500.528L266.906 500.24C267.418 497.52 268.666 495.44 270.65 494C272.634 492.528 275.21 491.792 278.378 491.792C282.026 491.792 284.778 492.72 286.634 494.576C288.522 496.4 289.466 499.024 289.466 502.448V511.76C289.466 512.432 289.578 512.896 289.802 513.152C290.058 513.408 290.426 513.536 290.906 513.536H291.722V518C291.53 518.064 291.21 518.112 290.762 518.144C290.346 518.176 289.914 518.192 289.466 518.192C288.41 518.192 287.466 518.032 286.634 517.712C285.802 517.36 285.162 516.768 284.714 515.936C284.266 515.072 284.042 513.904 284.042 512.432L284.57 512.816C284.314 513.936 283.754 514.944 282.89 515.84C282.058 516.704 281.002 517.376 279.722 517.856C278.442 518.336 277.002 518.576 275.402 518.576ZM276.65 514.112C278.026 514.112 279.21 513.84 280.202 513.296C281.194 512.752 281.962 512 282.506 511.04C283.05 510.08 283.322 508.944 283.322 507.632V506.192L276.698 507.536C275.322 507.824 274.33 508.256 273.722 508.832C273.146 509.376 272.858 510.096 272.858 510.992C272.858 511.984 273.178 512.752 273.818 513.296C274.49 513.84 275.434 514.112 276.65 514.112ZM295.712 518V492.368H301.28L301.52 499.568L300.8 499.28C301.056 497.488 301.584 496.048 302.384 494.96C303.184 493.872 304.16 493.072 305.312 492.56C306.464 492.048 307.728 491.792 309.104 491.792C310.992 491.792 312.576 492.208 313.856 493.04C315.168 493.872 316.16 495.024 316.832 496.496C317.504 497.936 317.84 499.616 317.84 501.536V518H311.696V503.504C311.696 502.064 311.552 500.848 311.264 499.856C310.976 498.864 310.496 498.112 309.824 497.6C309.184 497.056 308.32 496.784 307.232 496.784C305.6 496.784 304.288 497.36 303.296 498.512C302.336 499.664 301.856 501.328 301.856 503.504V518H295.712ZM347.115 518.768C344.651 518.768 342.523 518.24 340.731 517.184C338.939 516.096 337.563 514.608 336.603 512.72C335.675 510.8 335.195 508.624 335.163 506.192L341.451 505.856C341.515 508.352 342.027 510.224 342.987 511.472C343.979 512.72 345.355 513.344 347.115 513.344C348.907 513.344 350.299 512.72 351.291 511.472C352.283 510.192 352.779 508.32 352.779 505.856V483.92H359.019V505.856C359.019 508.48 358.523 510.768 357.531 512.72C356.539 514.64 355.147 516.128 353.355 517.184C351.595 518.24 349.515 518.768 347.115 518.768ZM376.644 518.576C374.116 518.576 371.892 518.032 369.972 516.944C368.084 515.824 366.612 514.256 365.556 512.24C364.532 510.224 364.02 507.872 364.02 505.184C364.02 502.464 364.532 500.112 365.556 498.128C366.612 496.112 368.084 494.56 369.972 493.472C371.892 492.352 374.116 491.792 376.644 491.792C379.172 491.792 381.38 492.352 383.268 493.472C385.156 494.56 386.612 496.112 387.636 498.128C388.692 500.112 389.22 502.464 389.22 505.184C389.22 507.872 388.692 510.224 387.636 512.24C386.612 514.256 385.156 515.824 383.268 516.944C381.38 518.032 379.172 518.576 376.644 518.576ZM376.644 513.584C378.628 513.584 380.148 512.848 381.204 511.376C382.292 509.904 382.836 507.84 382.836 505.184C382.836 502.56 382.292 500.512 381.204 499.04C380.148 497.536 378.628 496.784 376.644 496.784C374.66 496.784 373.124 497.536 372.036 499.04C370.948 500.512 370.404 502.56 370.404 505.184C370.404 507.84 370.948 509.904 372.036 511.376C373.124 512.848 374.66 513.584 376.644 513.584ZM404.378 518.576C401.85 518.576 399.722 518.208 397.994 517.472C396.298 516.736 394.986 515.712 394.058 514.4C393.13 513.088 392.602 511.6 392.474 509.936L398.762 509.648C398.986 510.992 399.546 512.032 400.442 512.768C401.338 513.504 402.666 513.872 404.426 513.872C405.866 513.872 406.986 513.648 407.786 513.2C408.618 512.72 409.034 511.984 409.034 510.992C409.034 510.416 408.89 509.936 408.602 509.552C408.314 509.168 407.77 508.832 406.97 508.544C406.17 508.256 404.986 507.968 403.418 507.68C400.794 507.232 398.73 506.688 397.226 506.048C395.722 505.376 394.65 504.544 394.01 503.552C393.402 502.56 393.098 501.328 393.098 499.856C393.098 497.456 394.01 495.52 395.834 494.048C397.69 492.544 400.394 491.792 403.946 491.792C406.25 491.792 408.186 492.176 409.754 492.944C411.322 493.68 412.538 494.704 413.402 496.016C414.298 497.296 414.858 498.768 415.082 500.432L408.89 500.72C408.73 499.856 408.442 499.104 408.026 498.464C407.61 497.824 407.05 497.344 406.346 497.024C405.642 496.672 404.81 496.496 403.85 496.496C402.41 496.496 401.322 496.784 400.586 497.36C399.85 497.936 399.482 498.704 399.482 499.664C399.482 500.336 399.642 500.896 399.962 501.344C400.314 501.792 400.874 502.16 401.642 502.448C402.41 502.704 403.434 502.944 404.714 503.168C407.402 503.584 409.514 504.128 411.05 504.8C412.618 505.44 413.722 506.272 414.362 507.296C415.034 508.288 415.37 509.488 415.37 510.896C415.37 512.528 414.906 513.92 413.978 515.072C413.082 516.224 411.802 517.104 410.138 517.712C408.506 518.288 406.586 518.576 404.378 518.576ZM431.253 518.576C428.693 518.576 426.469 518.032 424.581 516.944C422.693 515.824 421.237 514.256 420.213 512.24C419.189 510.224 418.677 507.872 418.677 505.184C418.677 502.496 419.189 500.16 420.213 498.176C421.237 496.16 422.677 494.592 424.533 493.472C426.421 492.352 428.613 491.792 431.109 491.792C433.541 491.792 435.669 492.336 437.493 493.424C439.349 494.512 440.773 496.08 441.765 498.128C442.757 500.176 443.253 502.64 443.253 505.52V506.912H425.061C425.189 509.152 425.797 510.848 426.885 512C428.005 513.12 429.477 513.68 431.301 513.68C432.677 513.68 433.813 513.376 434.709 512.768C435.637 512.128 436.277 511.248 436.629 510.128L442.917 510.512C442.213 513.008 440.821 514.976 438.741 516.416C436.693 517.856 434.197 518.576 431.253 518.576ZM425.061 502.784H436.917C436.789 500.704 436.197 499.168 435.141 498.176C434.085 497.152 432.741 496.64 431.109 496.64C429.477 496.64 428.117 497.168 427.029 498.224C425.973 499.28 425.317 500.8 425.061 502.784ZM447.468 525.584L449.964 518H447.036V511.28H454.044V517.232L450.876 525.584H447.468ZM485.145 518.768C482.041 518.768 479.305 518.064 476.937 516.656C474.569 515.216 472.713 513.184 471.369 510.56C470.025 507.904 469.353 504.72 469.353 501.008C469.353 497.36 470.009 494.208 471.321 491.552C472.633 488.864 474.473 486.8 476.841 485.36C479.209 483.888 481.993 483.152 485.193 483.152C489.545 483.152 492.921 484.24 495.321 486.416C497.721 488.56 499.289 491.568 500.025 495.44L493.497 495.776C493.081 493.536 492.185 491.776 490.809 490.496C489.433 489.216 487.561 488.576 485.193 488.576C483.273 488.576 481.609 489.088 480.201 490.112C478.793 491.136 477.705 492.576 476.937 494.432C476.169 496.288 475.785 498.48 475.785 501.008C475.785 503.568 476.169 505.776 476.937 507.632C477.737 509.456 478.841 510.864 480.249 511.856C481.657 512.848 483.289 513.344 485.145 513.344C487.673 513.344 489.625 512.656 491.001 511.28C492.409 509.872 493.305 507.952 493.689 505.52L500.217 505.856C499.769 508.512 498.905 510.816 497.625 512.768C496.345 514.688 494.649 516.176 492.537 517.232C490.457 518.256 487.993 518.768 485.145 518.768ZM501.576 518L513.864 483.92H521.496L533.784 518H527.256L524.424 509.936H510.936L508.104 518H501.576ZM512.76 504.608H522.6L517.704 490.208L512.76 504.608Z" fill="#EFFFFD"/>
<path d="M344 574L372.974 524H431L344 574Z" fill="#005A4E"/>
</svg>
