<svg width="275" height="291" viewBox="0 0 275 291" fill="none" xmlns="http://www.w3.org/2000/svg">
<style>
  path { fill: black; }
  @media (prefers-color-scheme: dark) {
    path { fill: white; }
  }
</style>
<path d="M7.3454 230.37C7.12875 230.448 6.91213 230.526 6.69552 230.603C6.63994 231.06 6.58436 231.517 6.52878 231.973C6.72048 232.101 6.91217 232.228 7.10381 232.355C12.8167 235.983 18.4612 239.244 24.0625 242.132C48.953 254.319 80.4931 260.858 113.609 247.912C146.871 235.209 169.456 204.07 180.203 178.662C192.695 149.881 197.138 123.817 202.654 106.943C205.442 98.5273 207.441 92.0406 214.422 85.2805C221.247 78.5798 233.528 73.1928 246.864 69.4833C252.762 67.9275 258.326 66.4686 264.985 65.3743C265.216 65.3304 265.448 65.2868 265.679 65.2432C265.792 64.7861 265.905 64.329 266.018 63.8719C265.833 63.7256 265.649 63.5793 265.464 63.4327C260.01 59.3657 255.196 55.8064 249.322 52.5226C236.153 44.962 219.699 39.1002 200.511 40.5171C181.278 41.5702 160.648 53.0888 147.619 66.8736C121.285 95.0692 112.258 123.347 102.41 144.41C93.7248 163.915 88.4052 176.748 78.6195 189.104C68.7753 201.719 49.3916 213.865 24.9933 223.614C19.5984 225.949 13.718 228.213 7.3454 230.37Z"/>
<path d="M2.22461 221.831C3.55794 221.831 4.89128 221.831 6.22461 221.831C6.49114 206.663 6.74435 191.472 6.98424 176.29C7.54311 140.924 8.02969 105.51 8.44398 70.1903C8.46443 63.8901 12.6635 57.956 18.4777 55.8107C18.6371 55.7492 18.7965 55.6876 18.9558 55.626C18.9558 55.626 18.9558 55.626 18.9558 55.626C18.9558 55.626 18.9558 55.626 18.9558 55.626C56.2903 41.1999 93.5904 26.6877 130.856 12.0896C134.272 10.7479 138.188 10.7839 141.56 12.1722C178.81 27.2701 216.096 42.2812 253.415 57.2056C258.634 59.2235 262.291 64.6294 262.225 70.2197C262.225 70.2353 262.225 70.251 262.225 70.2667C262.225 120.8 262.373 171.334 262.668 221.867C262.785 227.648 259.032 233.303 253.591 235.439C216.515 250.392 179.473 265.431 142.465 280.555C138.838 282.064 134.618 282.141 130.903 280.734C99.9717 269.021 69.0177 257.366 38.0405 245.771C31.2942 243.246 24.5468 240.724 17.7984 238.204C11.1521 235.833 6.2832 229.06 6.22461 221.831C4.89128 221.831 3.55794 221.831 2.22461 221.831C1.97578 230.656 7.67058 239.374 16.0378 242.69C22.6986 245.433 29.3606 248.173 36.0236 250.91C66.6186 263.48 97.2367 275.99 127.878 288.441C133.476 290.723 139.961 290.785 145.638 288.581C182.982 274.304 220.291 259.942 257.567 245.493C267.092 241.913 273.852 232.106 273.781 221.867C274.077 171.334 274.225 120.8 274.225 70.2667C274.225 70.251 274.225 70.2353 274.225 70.2197C274.345 59.8313 267.545 49.8081 257.853 46.0799C220.506 31.2241 183.124 16.4551 145.708 1.77289C139.683 -0.622321 132.756 -0.586381 126.774 1.85549C89.691 16.9109 52.6419 32.0523 15.627 47.2797C15.627 47.2797 15.627 47.2797 15.627 47.2797C15.627 47.2797 15.627 47.2797 15.627 47.2797C15.469 47.3447 15.311 47.4097 15.153 47.4747C6.07136 51.0624 -0.208869 60.5225 0.00524212 70.1903C0.419529 105.51 0.906109 140.924 1.46498 176.29C1.70487 191.472 1.95808 206.663 2.22461 221.831ZM6.22461 221.831H2.22461H6.22461Z"/>
</svg>


